# xmcd
# Copyright (C) 1995-1998 Ti Kan
#
# Track frame offsets:
#       150
#       1431
#       18389
#       39161
#       57899
#       81649
#       93445
#       112346
#       128311
#       142705
#       159813
#       176687
#       192475
#       206761
#       223869
#
# Disc length: 3519 seconds
#
# Revision: 0
# Processed by: cddbd v1.5.2PL0 Copyright (c) Steve Scherf et al.
# Submitted via: CD-Import v1.0
#
DISCID=c90dbd0f
DTITLE=Dobet Gnahoré - Ano Neko - Let's Create Together
DYEAR=1900
DGENRE=
TTITLE0=Intro Pygmé
TTITLE1=Youné
TTITLE2=Kakou
TTITLE3=Weli
TTITLE4=Nsielé
TTITLE5=Warabo
TTITLE6=Nan
TTITLE7=Sida
TTITLE8=Atho
TTITLE9=Mindilé
TTITLE10=Notéfi
TTITLE11=Nadodo
TTITLE12=Bété Djili
TTITLE13=Abiani
TTITLE14=Amonbolo
EXTD=
EXTT0=
EXTT1=
EXTT2=
EXTT3=
EXTT4=
EXTT5=
EXTT6=
EXTT7=
EXTT8=
EXTT9=
EXTT10=
EXTT11=
EXTT12=
EXTT13=
EXTT14=
PLAYORDER=
